<svg width="598" height="139" viewBox="0 0 598 139" fill="none" xmlns="http://www.w3.org/2000/svg">
<path fill-rule="evenodd" clip-rule="evenodd" d="M52.125 97.3C47.5169 97.3 43.0975 95.4694 39.839 92.211C36.5806 88.9525 34.75 84.5331 34.75 79.925V0H0V79.925C0 108.712 23.3381 132.05 52.125 132.05H90.35V97.3H52.125ZM156.375 34.75C152.268 34.75 148.201 35.559 144.407 37.1307C140.612 38.7024 137.164 41.0061 134.26 43.9102C131.356 46.8144 129.052 50.2621 127.481 54.0566C125.909 57.851 125.1 61.9179 125.1 66.025C125.1 70.1321 125.909 74.199 127.481 77.9934C129.052 81.7879 131.356 85.2356 134.26 88.1398C137.164 91.0439 140.612 93.3476 144.407 94.9193C148.201 96.4911 152.268 97.3 156.375 97.3C164.67 97.3 172.625 94.005 178.49 88.1398C184.355 82.2746 187.65 74.3196 187.65 66.025C187.65 57.7304 184.355 49.7754 178.49 43.9102C172.625 38.045 164.67 34.75 156.375 34.75ZM90.35 66.025C90.35 29.5618 119.912 0 156.375 0C192.838 0 222.4 29.5618 222.4 66.025C222.4 102.488 192.838 132.05 156.375 132.05C119.912 132.05 90.35 102.488 90.35 66.025ZM531.675 34.75C523.38 34.75 515.425 38.045 509.56 43.9102C503.695 49.7754 500.4 57.7304 500.4 66.025C500.4 74.3196 503.695 82.2746 509.56 88.1398C515.425 94.005 523.38 97.3 531.675 97.3C539.97 97.3 547.925 94.005 553.79 88.1398C559.655 82.2746 562.95 74.3196 562.95 66.025C562.95 57.7304 559.655 49.7754 553.79 43.9102C547.925 38.045 539.97 34.75 531.675 34.75ZM465.65 66.025C465.65 29.5618 495.212 0 531.675 0C568.138 0 597.7 29.5618 597.7 66.025C597.7 102.488 568.138 132.05 531.675 132.05C495.212 132.05 465.65 102.488 465.65 66.025ZM295.375 0C258.912 0 229.35 29.5618 229.35 66.025C229.35 102.488 258.912 132.05 295.375 132.05H392.675C399.517 132.05 406.116 131.008 412.323 129.075L430.9 139L450.944 101.456C456.035 91.8987 458.699 81.236 458.7 70.407V66.025C458.7 29.5618 429.138 0 392.675 0H295.375ZM423.95 66.025C423.95 57.7304 420.655 49.7754 414.79 43.9102C408.925 38.045 400.97 34.75 392.675 34.75H295.375C291.268 34.75 287.201 35.559 283.407 37.1307C279.612 38.7024 276.164 41.0061 273.26 43.9102C270.356 46.8144 268.052 50.2621 266.481 54.0566C264.909 57.851 264.1 61.9179 264.1 66.025C264.1 70.1321 264.909 74.199 266.481 77.9934C268.052 81.7879 270.356 85.2356 273.26 88.1398C276.164 91.0439 279.612 93.3476 283.407 94.9193C287.201 96.4911 291.268 97.3 295.375 97.3H392.675C400.928 97.3002 408.846 94.0386 414.704 88.2259C420.562 82.4132 423.886 74.5207 423.95 66.2682V66.025Z" fill="#D2BF9E"/>
</svg>
